<?xml version="1.0" encoding="iso-8859-1"?>
<!DOCTYPE svg PUBLIC "-//W3C//DTD SVG 1.1//EN" "http://www.w3.org/Graphics/SVG/1.1/DTD/svg11.dtd">
<svg height="16px" width="16px" version="1.1" id="Capa_1" xmlns="http://www.w3.org/2000/svg"
     viewBox="0 0 273.663 273.663" xml:space="preserve">
<g>
	<path style="fill:#000000;" d="M266.163,126.575c-0.579,0-1.144,0.065-1.686,0.19l-74.066,14.385l-47.117-80.015
		c-1.349-2.29-3.807-3.694-6.463-3.694c-0.012,0-0.024,0-0.036,0c-2.67,0.013-5.131,1.444-6.463,3.757l-46.075,80.01L9.156,126.759
		c-2.431-0.544-5.086,0.129-6.975,2.03c-1.271,1.279-1.986,2.903-2.146,4.57c-0.123,1.256,0.076,2.483,0.536,3.589
		c0.168,0.407,0.374,0.802,0.617,1.18c0.333,0.519,0.729,0.995,1.179,1.419l74.968,74.495c1.404,1.396,3.306,2.18,5.286,2.18
		h109.641c1.989,0,3.896-0.79,5.304-2.196l73.9-73.9c1.406-1.407,2.196-3.314,2.196-5.304v-0.746
		C273.663,129.932,270.305,126.575,266.163,126.575z M136.904,79.844l37.886,64.34l-37.355,7.255l-37.595-7.233L136.904,79.844z
		 M137.442,169.196l35.365,32.025h-70.729L137.442,169.196z M30.232,146.089l91.038,17.516l-38.409,34.782L30.232,146.089z
		 M192.006,198.371l-38.417-34.789l90.851-17.645L192.006,198.371z"/>
</g>
</svg>