<?xml version="1.0" encoding="UTF-8"?>
<svg xmlns="http://www.w3.org/2000/svg" width="64px" height="64px" viewBox="0 0 64 64" version="1.1">
<g id="surface1">
<path style=" stroke:none;fill-rule:nonzero;fill:rgb(98.039216%,74.509805%,16.862746%);fill-opacity:1;" d="M 38.179688 3.0625 C 38.855469 3.59375 39.5 4.160156 40.125 4.75 C 40.226562 4.839844 40.324219 4.929688 40.429688 5.023438 C 43.191406 7.625 45.03125 11.683594 45.160156 15.480469 C 45.171875 15.925781 45.171875 16.367188 45.171875 16.8125 C 45.171875 16.90625 45.171875 17 45.171875 17.097656 C 45.15625 20.679688 44.089844 24.109375 41.925781 27.003906 C 41.523438 27.570312 41.457031 27.917969 41.558594 28.601562 C 41.660156 29.023438 41.792969 29.21875 42.125 29.5 C 43.191406 30.140625 44.644531 29.902344 45.804688 29.660156 C 47.289062 29.222656 48.40625 28.207031 49.148438 26.855469 C 49.304688 26.550781 49.460938 26.246094 49.617188 25.9375 C 50.476562 24.257812 51.378906 23.335938 53.125 22.625 C 54.324219 22.273438 55.945312 22.332031 57.082031 22.835938 C 58.40625 23.582031 59.472656 24.6875 60 26.125 C 60.238281 27.285156 60.285156 28.441406 60.28125 29.617188 C 60.28125 29.867188 60.28125 29.867188 60.285156 30.117188 C 60.285156 30.566406 60.285156 31.011719 60.285156 31.457031 C 60.28125 31.929688 60.285156 32.402344 60.285156 32.875 C 60.285156 33.671875 60.285156 34.464844 60.28125 35.257812 C 60.28125 36.167969 60.28125 37.078125 60.28125 37.988281 C 60.285156 38.777344 60.285156 39.5625 60.285156 40.351562 C 60.285156 40.820312 60.285156 41.289062 60.285156 41.753906 C 60.285156 43.5 60.277344 45.238281 60.140625 46.980469 C 60.128906 47.101562 60.121094 47.226562 60.109375 47.351562 C 59.742188 51.503906 57.84375 55.25 55 58.25 C 54.832031 58.429688 54.832031 58.429688 54.660156 58.613281 C 51.71875 61.703125 47.332031 63.863281 43.035156 64.015625 C 42.792969 64.015625 42.792969 64.015625 42.546875 64.015625 C 42.453125 64.019531 42.363281 64.019531 42.269531 64.019531 C 41.96875 64.019531 41.667969 64.019531 41.367188 64.019531 C 41.152344 64.019531 40.933594 64.019531 40.71875 64.023438 C 40.128906 64.023438 39.542969 64.023438 38.953125 64.023438 C 38.585938 64.027344 38.21875 64.027344 37.851562 64.027344 C 36.695312 64.027344 35.539062 64.03125 34.386719 64.03125 C 33.058594 64.03125 31.730469 64.03125 30.402344 64.035156 C 29.375 64.039062 28.34375 64.039062 27.316406 64.039062 C 26.703125 64.039062 26.089844 64.042969 25.476562 64.042969 C 24.898438 64.046875 24.320312 64.046875 23.742188 64.042969 C 23.53125 64.042969 23.320312 64.046875 23.109375 64.046875 C 21.222656 64.058594 19.394531 63.828125 17.578125 63.296875 C 17.414062 63.25 17.414062 63.25 17.25 63.203125 C 12.457031 61.738281 8.382812 58.433594 5.972656 54.050781 C 5.3125 52.785156 4.757812 51.5 4.375 50.125 C 4.351562 50.035156 4.324219 49.949219 4.300781 49.859375 C 3.886719 48.324219 3.824219 46.796875 3.820312 45.21875 C 3.820312 45.125 3.820312 45.03125 3.816406 44.933594 C 3.808594 43.113281 4.046875 41.359375 4.59375 39.617188 C 4.625 39.511719 4.660156 39.410156 4.691406 39.300781 C 5.828125 35.726562 8.105469 32.136719 11.25 30 C 11.050781 29.925781 11.050781 29.925781 10.84375 29.851562 C 10.644531 29.777344 10.449219 29.699219 10.25 29.625 C 10.132812 29.582031 10.019531 29.535156 9.898438 29.492188 C 7.429688 28.515625 5.636719 26.828125 4.53125 24.40625 C 3.742188 22.554688 3.75 20.753906 3.75 18.75 C 6.265625 18.75 8.78125 18.75 11.375 18.75 C 11.363281 18.144531 11.355469 17.539062 11.34375 16.914062 C 11.320312 12.320312 12.902344 8.203125 16.109375 4.886719 C 21.871094 -0.898438 31.542969 -1.796875 38.179688 3.0625 Z M 38.179688 3.0625 "/>
<path style=" stroke:none;fill-rule:nonzero;fill:rgb(99.607843%,84.313726%,25.882354%);fill-opacity:1;" d="M 28.125 0 C 28.125 21.121094 28.125 42.238281 28.125 64 C 19.976562 64 19.976562 64 17.578125 63.296875 C 17.414062 63.25 17.414062 63.25 17.25 63.203125 C 12.457031 61.738281 8.382812 58.433594 5.972656 54.050781 C 5.3125 52.785156 4.757812 51.5 4.375 50.125 C 4.351562 50.035156 4.324219 49.949219 4.300781 49.859375 C 3.886719 48.324219 3.824219 46.796875 3.820312 45.21875 C 3.820312 45.125 3.820312 45.03125 3.816406 44.933594 C 3.808594 43.113281 4.046875 41.359375 4.59375 39.617188 C 4.625 39.511719 4.660156 39.410156 4.691406 39.300781 C 5.828125 35.726562 8.105469 32.136719 11.25 30 C 11.050781 29.925781 11.050781 29.925781 10.84375 29.851562 C 10.644531 29.777344 10.449219 29.699219 10.25 29.625 C 10.132812 29.582031 10.019531 29.535156 9.898438 29.492188 C 7.429688 28.515625 5.636719 26.828125 4.53125 24.40625 C 3.742188 22.554688 3.75 20.753906 3.75 18.75 C 6.265625 18.75 8.78125 18.75 11.375 18.75 C 11.363281 18.144531 11.355469 17.539062 11.34375 16.914062 C 11.320312 12.320312 12.902344 8.203125 16.109375 4.886719 C 19.363281 1.621094 23.542969 0 28.125 0 Z M 28.125 0 "/>
<path style=" stroke:none;fill-rule:nonzero;fill:rgb(99.607843%,56.862748%,0%);fill-opacity:1;" d="M 31.5 37.25 C 35.578125 37.714844 39.777344 39.300781 43.375 41.25 C 43.453125 41.289062 43.527344 41.332031 43.609375 41.375 C 44.609375 41.910156 45.511719 42.511719 46.375 43.25 C 46.492188 43.339844 46.492188 43.339844 46.609375 43.429688 C 47.484375 44.117188 48.335938 45.171875 48.625 46.25 C 48.722656 47.339844 48.730469 48.3125 48.125 49.25 C 48.078125 49.324219 48.03125 49.398438 47.980469 49.476562 C 46.511719 51.460938 43.5625 51.941406 41.304688 52.28125 C 41.078125 52.3125 40.851562 52.34375 40.625 52.375 C 40.476562 52.398438 40.332031 52.417969 40.179688 52.441406 C 39.480469 52.527344 38.785156 52.519531 38.085938 52.519531 C 37.9375 52.519531 37.789062 52.523438 37.636719 52.523438 C 37.324219 52.523438 37.007812 52.523438 36.695312 52.523438 C 36.226562 52.523438 35.753906 52.527344 35.285156 52.527344 C 32.84375 52.535156 30.515625 52.363281 28.125 51.875 C 28.125 50.597656 28.125 49.316406 28.125 48 C 28.621094 48.082031 29.113281 48.164062 29.625 48.25 C 29.953125 48.296875 30.28125 48.339844 30.609375 48.382812 C 30.835938 48.410156 30.835938 48.410156 31.070312 48.441406 C 32.621094 48.613281 34.160156 48.648438 35.71875 48.648438 C 36.074219 48.648438 36.429688 48.652344 36.785156 48.652344 C 39.417969 48.660156 42.425781 48.644531 44.75 47.25 C 44.1875 45.648438 41.992188 44.78125 40.554688 44.085938 C 37.570312 42.703125 34.136719 41.480469 30.875 41 C 30.84375 40.230469 30.96875 39.527344 31.117188 38.773438 C 31.140625 38.652344 31.164062 38.535156 31.1875 38.414062 C 31.355469 37.535156 31.355469 37.535156 31.5 37.25 Z M 31.5 37.25 "/>
<path style=" stroke:none;fill-rule:nonzero;fill:rgb(99.607843%,56.862748%,0%);fill-opacity:1;" d="M 3.75 18.75 C 6.308594 18.75 8.863281 18.75 11.5 18.75 C 11.808594 20.234375 11.808594 20.234375 12.125 21.75 C 12.839844 23.746094 13.652344 25.667969 15.082031 27.261719 C 15.136719 27.339844 15.191406 27.417969 15.25 27.5 C 15.125 27.875 15.125 27.875 14.910156 28.019531 C 14.820312 28.066406 14.726562 28.113281 14.632812 28.160156 C 14.53125 28.210938 14.429688 28.261719 14.328125 28.316406 C 14.21875 28.367188 14.109375 28.421875 14 28.476562 C 13.335938 28.8125 12.699219 29.136719 12.101562 29.585938 C 11.730469 29.84375 11.632812 29.875 11.15625 29.898438 C 9.320312 29.480469 7.828125 28.554688 6.5 27.25 C 6.355469 27.113281 6.355469 27.113281 6.207031 26.96875 C 3.996094 24.714844 3.75 21.761719 3.75 18.75 Z M 3.75 18.75 "/>
<path style=" stroke:none;fill-rule:nonzero;fill:rgb(98.039216%,74.509805%,17.254902%);fill-opacity:1;" d="M 19.125 42.625 C 19.5 42.671875 19.871094 42.726562 20.242188 42.789062 C 20.351562 42.804688 20.457031 42.824219 20.570312 42.84375 C 21.300781 42.960938 22.027344 43.09375 22.75 43.25 C 22.753906 43.335938 22.757812 43.425781 22.757812 43.515625 C 22.808594 44.347656 22.964844 44.898438 23.375 45.625 C 23.375 45.707031 23.375 45.789062 23.375 45.875 C 23.484375 45.925781 23.484375 45.925781 23.59375 45.976562 C 23.871094 46.121094 24.101562 46.285156 24.351562 46.46875 C 25.488281 47.234375 26.824219 47.609375 28.125 48 C 28.125 49.238281 28.125 50.476562 28.125 51.75 C 26.714844 51.609375 26.714844 51.609375 26.242188 51.453125 C 26.132812 51.417969 26.027344 51.382812 25.921875 51.347656 C 25.8125 51.308594 25.703125 51.273438 25.59375 51.234375 C 25.480469 51.195312 25.367188 51.15625 25.246094 51.117188 C 22.761719 50.242188 20.585938 48.933594 19.402344 46.5 C 19.046875 45.628906 18.964844 44.882812 18.976562 43.953125 C 18.976562 43.839844 18.976562 43.726562 18.976562 43.605469 C 18.980469 42.769531 18.980469 42.769531 19.125 42.625 Z M 19.125 42.625 "/>
<path style=" stroke:none;fill-rule:nonzero;fill:rgb(96.078432%,57.254905%,39.215687%);fill-opacity:1;" d="M 18.875 15 C 20.113281 15 21.351562 15 22.625 15 C 22.625 16.238281 22.625 17.476562 22.625 18.75 C 21.386719 18.75 20.148438 18.75 18.875 18.75 C 18.875 17.511719 18.875 16.273438 18.875 15 Z M 18.875 15 "/>
</g>
</svg>
