<?xml version="1.0" encoding="UTF-8"?>
<svg version="1.1" xmlns="http://www.w3.org/2000/svg" width="512" height="512">
<path d="M0 0 C3.42412725 2.91076485 6.73154603 5.91605553 10 9 C10.79921875 9.72316406 11.5984375 10.44632813 12.421875 11.19140625 C34.52685865 31.99402621 49.24953709 64.46146152 50.28878784 94.8371582 C50.36979026 98.3918274 50.38473766 101.94452309 50.375 105.5 C50.37418427 106.62267776 50.37418427 106.62267776 50.37335205 107.76803589 C50.3329208 119.89498402 49.46157957 131.31182702 46 143 C45.69449219 144.06927734 45.69449219 144.06927734 45.3828125 145.16015625 C40.99220114 160.09365538 33.75666636 174.66364624 24.375 187.08984375 C21.14080666 191.58279984 20.67470004 194.39047029 21.4765625 199.81640625 C22.28366324 203.18334142 23.35579489 204.75242565 26 207 C34.38760022 212.02863151 46.08156939 210.39004303 55.2265625 208.2421875 C70.50384472 203.12107036 78.35660074 193.03849556 85.375 179.0625 C85.88804687 178.02931641 86.40109375 176.99613281 86.9296875 175.93164062 C91.71360855 166.67451889 97.60640845 158.92237813 107.3125 154.5 C108.29863281 154.0359375 109.28476562 153.571875 110.30078125 153.09375 C120.82664525 148.82856632 135.08346162 149.61949321 145.484375 153.73046875 C149.4122019 155.71267953 152.72708892 158.07200929 156 161 C156.86625 161.763125 157.7325 162.52625 158.625 163.3125 C170.48077266 176.72824275 171.15164472 190.25648263 171.14526367 207.49829102 C171.15030159 209.4738649 171.15030159 209.4738649 171.15544128 211.48934937 C171.16421615 215.079169 171.16661691 218.66896474 171.16725707 222.25879407 C171.16797239 224.51540128 171.17011597 226.77200259 171.17275429 229.02860832 C171.18199306 236.94184624 171.18609187 244.85506741 171.18530273 252.76831055 C171.18470548 260.07528388 171.19519149 267.38218254 171.2110464 274.68913704 C171.22426394 281.01239819 171.22948062 287.33563541 171.22884732 293.65891021 C171.22859604 297.41268953 171.23123564 301.16640271 171.24202538 304.92016792 C171.37630302 355.27866316 164.85112396 399.18601258 129 437 C127.66001953 438.43666016 127.66001953 438.43666016 126.29296875 439.90234375 C102.76192744 464.63856516 67.66266983 481.91947855 33.27038765 483.13142776 C31.33650594 483.13588976 31.33650594 483.13588976 29.36355591 483.14044189 C28.63846482 483.14341302 27.91337373 483.14638414 27.16631019 483.1494453 C24.75946169 483.15805127 22.3526634 483.15963364 19.94580078 483.16113281 C18.21030066 483.16576692 16.47480154 483.17079237 14.73930359 483.17617798 C10.0383058 483.18925127 5.33732226 483.1957376 0.63630915 483.20018864 C-2.30869707 483.203129 -5.25369948 483.2072357 -8.19870377 483.21169281 C-17.43580572 483.22535756 -26.67289886 483.23502788 -35.91001022 483.2388947 C-46.52940128 483.24336594 -57.14866302 483.26087466 -67.76801479 483.2898953 C-76.00363607 483.31161048 -84.23922124 483.32160428 -92.4748708 483.32293582 C-97.38040155 483.3239773 -102.28581059 483.32974302 -107.19131088 483.34775543 C-111.81578786 483.36440601 -116.44005387 483.36631056 -121.0645504 483.35761642 C-122.74696232 483.3568549 -124.42938638 483.36106937 -126.11176872 483.37107468 C-141.20752425 483.45546891 -155.84174418 481.63425121 -170.375 477.375 C-171.67280396 476.99649902 -171.67280396 476.99649902 -172.99682617 476.61035156 C-211.35683175 464.91849157 -243.93336524 438.47665116 -263.2265625 403.39453125 C-268.51409995 393.27367212 -272.93947671 383.01020052 -276 372 C-276.19899902 371.29568848 -276.39799805 370.59137695 -276.60302734 369.86572266 C-279.8990255 357.58603746 -280.39367242 345.38586662 -280.4375 332.75 C-280.4436734 331.99739899 -280.4498468 331.24479797 -280.45620728 330.46939087 C-280.53305254 315.8967892 -278.61073762 301.88676011 -274.25 287.9375 C-273.86485229 286.68900269 -273.86485229 286.68900269 -273.47192383 285.4152832 C-264.2356095 256.33408781 -246.26728667 231.57406656 -223 212 C-222.34 211.67 -221.68 211.34 -221 211 C-222.60875 210.4121875 -222.60875 210.4121875 -224.25 209.8125 C-225.83401676 209.21012743 -227.4172669 208.60573736 -229 208 C-229.9178125 207.6596875 -230.835625 207.319375 -231.78125 206.96875 C-251.48330976 199.2953162 -266.0031454 185.44675106 -274.75 166.25390625 C-281.07354917 151.43030463 -281 137.04667201 -281 121 C-260.87 121 -240.74 121 -220 121 C-220.0825 116.153125 -220.165 111.30625 -220.25 106.3125 C-220.43781221 69.57196922 -207.78627648 36.61401185 -182.11328125 10.08984375 C-164.72059352 -7.37905607 -142.93853969 -19.93107445 -119 -26 C-117.88109375 -26.2990625 -116.7621875 -26.598125 -115.609375 -26.90625 C-75.77849915 -35.75755574 -31.42992817 -26.15370289 0 0 Z M-165.44238281 38.21289062 C-182.19414896 57.43278532 -190.824197 84.35573121 -190.24609375 109.65625 C-187.77271215 143.2628318 -171.74717939 168.69099103 -147 191 C-142.03581249 195.13632482 -136.87810012 199.0045592 -131.61547852 202.75170898 C-129.93152281 204.05291278 -128.47189626 205.46564782 -127 207 C-128.69974976 207.40726318 -128.69974976 207.40726318 -130.43383789 207.82275391 C-134.7139713 208.85147541 -138.99035865 209.89511753 -143.26586914 210.94287109 C-145.10247348 211.39083901 -146.94001797 211.83497329 -148.77856445 212.27490234 C-163.08627934 215.70250771 -177.2381767 219.42818959 -189.8125 227.375 C-190.43012207 227.7558374 -191.04774414 228.1366748 -191.68408203 228.52905273 C-197.12955257 231.95108912 -202.132706 235.79681002 -207 240 C-207.75667969 240.62390625 -208.51335937 241.2478125 -209.29296875 241.890625 C-231.22164133 260.46017218 -245.38904586 289.67826272 -249 318 C-249.2928701 322.89929839 -249.33419384 327.78035449 -249.3125 332.6875 C-249.31034485 333.34985657 -249.3081897 334.01221313 -249.30596924 334.69464111 C-249.13294227 367.83880797 -235.82820353 395.10629898 -212.515625 418.4921875 C-184.22063494 445.36405676 -148.14662776 453.15869592 -110.2121582 453.14526367 C-108.8039898 453.14826691 -107.3958222 453.15167204 -105.98765564 453.15544128 C-102.21045747 453.16416705 -98.43328204 453.1666145 -94.65607476 453.16725707 C-92.28306046 453.1679741 -89.91005171 453.17012059 -87.5370388 453.17275429 C-79.22105933 453.18196984 -70.90509574 453.18609394 -62.58911133 453.18530273 C-54.89737476 453.18470293 -47.20570854 453.19524547 -39.51398975 453.2110464 C-32.85949866 453.22421831 -26.2050303 453.22948263 -19.55052632 453.22884732 C-15.59856788 453.22859516 -11.64667212 453.23128752 -7.69472694 453.24202538 C36.67372979 453.3539112 72.73379033 448.01974348 106 416.375 C116.40343202 405.67432706 123.96204486 393.5836169 130 380 C130.48210937 378.93394531 130.96421875 377.86789062 131.4609375 376.76953125 C134.07033162 370.53070713 135.80350226 364.21291131 137.25 357.625 C137.41338867 356.89498779 137.57677734 356.16497559 137.74511719 355.4128418 C140.19583531 343.38002485 140.14975234 330.87901816 140.14526367 318.6484375 C140.14826704 317.28814097 140.15167221 315.92784528 140.15544128 314.56755066 C140.16415485 310.9255184 140.16661365 307.28350972 140.16725707 303.64146805 C140.16797356 301.3596803 140.17011881 299.07789835 140.17275429 296.79611206 C140.18195789 288.81931179 140.18609449 280.84252807 140.18530273 272.86572266 C140.18469968 265.45206486 140.19530863 258.03847928 140.2110464 250.62483978 C140.22413132 244.23127147 140.2294864 237.8377268 140.22884732 231.4441452 C140.2285931 227.637359 140.23140388 223.83063749 140.24202538 220.02386475 C140.25172528 216.45158708 140.25177268 212.8794359 140.24450874 209.3071537 C140.2429706 207.37990834 140.25129174 205.45266293 140.25994873 203.5254364 C140.35914459 193.02349862 140.35914459 193.02349862 135.5 184.0625 C132.026876 181.48539079 128.67905429 181.44025127 124.46484375 181.43359375 C120.95338335 182.2405062 119.53291167 183.39247543 117 186 C115.03692116 189.25157173 113.40438534 192.64593819 111.75 196.0625 C107.59229152 204.31739514 103.39258944 211.26385489 97 218 C96.44183594 218.63550781 95.88367188 219.27101562 95.30859375 219.92578125 C84.51459395 231.65612802 68.44362497 239.20150689 52.55297852 240.22119141 C49.25917524 240.31996557 45.97538177 240.3713918 42.68066406 240.37060547 C40.63521925 240.37497815 38.5919401 240.41140174 36.546875 240.44921875 C23.35968116 240.56251851 12.53305577 237.09714657 2.83984375 227.96484375 C-6.65928274 217.89754521 -10.5286935 206.75901778 -10.25 193.05078125 C-9.36027915 182.1934065 -4.67907917 174.0420801 1.2097168 165.14599609 C17.06875773 141.04344363 23.3757032 113.12573747 17.87329102 84.36767578 C17.0708766 80.85686701 16.10859054 77.42585272 15 74 C14.79632813 73.35853027 14.59265625 72.71706055 14.3828125 72.05615234 C8.96448139 55.62138414 -0.75794669 42.03068594 -13 30 C-13.76054687 29.24074219 -14.52109375 28.48148438 -15.3046875 27.69921875 C-37.52432016 6.74114033 -66.05059244 1.04265631 -95.56201172 1.82080078 C-122.97402359 3.24960469 -147.2391635 18.46442512 -165.44238281 38.21289062 Z M-247 151 C-240.02034304 164.95931393 -233.25712758 173.11443803 -218.875 178.8125 C-212.19078325 180.86732251 -204.93865508 180.75310307 -198 181 C-198.49628906 180.09121094 -198.99257812 179.18242187 -199.50390625 178.24609375 C-200.19032806 176.97668355 -200.87651267 175.70714505 -201.5625 174.4375 C-201.88541016 173.84775391 -202.20832031 173.25800781 -202.54101562 172.65039062 C-206.36037811 165.55728888 -209.57194216 158.34583823 -213 151 C-224.22 151 -235.44 151 -247 151 Z " fill="#000000" transform="translate(311,29)"/>
<path d="M0 0 C9.27584848 1.2363287 18.21786087 3.12711398 27.25 5.5625 C28.21827728 5.82285538 28.21827728 5.82285538 29.20611572 6.08847046 C61.12055265 14.72050343 94.0379743 27.0052976 120 48 C120.74894531 48.58394531 121.49789062 49.16789062 122.26953125 49.76953125 C130.88129912 56.80055397 137.93650065 66.73321123 139.37890625 77.9453125 C139.7199112 86.54743734 137.70311713 93.81930375 132.4375 100.6875 C114.13950019 120.07791771 79.88666745 123.19746379 54.93652344 124.07235718 C49.66642309 124.21039884 44.39673134 124.24605824 39.125 124.25 C38.30351471 124.25067474 37.48202942 124.25134949 36.63565063 124.25204468 C-4.3722918 124.19917711 -53.72497258 120.99808084 -85.4609375 91.73046875 C-95.28023722 81.63387984 -99.98067587 69.20122752 -100.1875 55.25 C-100.11680149 51.4159653 -99.8128794 47.75956724 -99 44 C-91.87357553 44.39820098 -84.89800053 45.26099799 -77.875 46.5 C-76.75557007 46.69589722 -76.75557007 46.69589722 -75.61352539 46.89575195 C-70.26434811 47.86782595 -70.26434811 47.86782595 -68 49 C-68.05220703 49.8353125 -68.05220703 49.8353125 -68.10546875 50.6875 C-68.3586882 57.82587674 -67.37264055 63.252732 -62.625 68.75 C-30.66992283 96.14006615 25.04071773 94.46695539 64.88452148 91.48413086 C78.81670531 90.20642556 93.93796365 88.56590455 106 81 C98.74877007 64.45699303 71.14577116 55.02902244 55.4375 48.75 C35.77316114 41.08069715 15.67841063 35.2035658 -5 31 C-3.60073684 20.61252881 -1.87242802 10.31083699 0 0 Z " fill="#000000" transform="translate(251,297)"/>
<path d="M0 0 C1.25159912 0.00523682 2.50319824 0.01047363 3.79272461 0.01586914 C5.00839111 0.0183667 6.22405762 0.02086426 7.4765625 0.0234375 C9.03366943 0.0325415 10.59077637 0.04164551 12.19506836 0.05102539 C17.12444336 0.07165039 22.05381836 0.09227539 27.13256836 0.11352539 C27.13256836 10.34352539 27.13256836 20.57352539 27.13256836 31.11352539 C22.20319336 31.13415039 17.27381836 31.15477539 12.19506836 31.17602539 C9.85940796 31.1896814 9.85940796 31.1896814 7.4765625 31.20361328 C5.65306274 31.20735962 5.65306274 31.20735962 3.79272461 31.21118164 C2.54112549 31.21641846 1.28952637 31.22165527 0 31.22705078 C-2.86743164 31.11352539 -2.86743164 31.11352539 -3.86743164 30.11352539 C-3.96746453 27.97999365 -3.99824212 25.84314997 -4.00024414 23.70727539 C-4.0015332 22.40661133 -4.00282227 21.10594727 -4.00415039 19.76586914 C-4.00205566 19.08508301 -3.99996094 18.40429688 -3.99780273 17.70288086 C-3.99245404 15.62224024 -3.99774844 13.5418155 -4.00415039 11.46118164 C-4.00286133 10.16051758 -4.00157227 8.85985352 -4.00024414 7.51977539 C-3.99911621 6.31643555 -3.99798828 5.1130957 -3.99682617 3.87329102 C-3.81992791 0.10035142 -3.7890218 0.15001236 0 0 Z " fill="#000000" transform="translate(153.867431640625,118.886474609375)"/>
</svg>
